<?xml version="1.0" standalone="no"?>
<!DOCTYPE svg PUBLIC "-//W3C//DTD SVG 20010904//EN"
 "http://www.w3.org/TR/2001/REC-SVG-20010904/DTD/svg10.dtd">
<svg version="1.0" xmlns="http://www.w3.org/2000/svg"
 width="654.000000pt" height="640.000000pt" viewBox="0 0 654.000000 640.000000"
 preserveAspectRatio="xMidYMid meet">

<g transform="translate(0.000000,640.000000) scale(0.100000,-0.100000)"
fill="#a600f7" stroke="none">
<path d="M3015 6274 c-22 -2 -96 -11 -165 -20 -1165 -144 -2162 -966 -2535
-2089 -214 -644 -200 -1369 39 -2020 94 -255 301 -619 482 -845 90 -112 306
-333 421 -430 473 -400 1024 -643 1648 -726 162 -21 530 -24 695 -6 595 69
1157 302 1620 672 137 110 375 348 479 480 470 594 700 1276 678 2015 -14 459
-113 853 -319 1265 -417 837 -1176 1430 -2091 1634 -230 52 -372 67 -652 71
-143 1 -278 1 -300 -1z m545 -369 c643 -69 1210 -336 1656 -780 186 -186 299
-326 420 -525 205 -337 336 -726 375 -1114 15 -152 6 -536 -15 -669 -66 -408
-208 -773 -428 -1101 -102 -152 -204 -274 -357 -426 -359 -357 -787 -600
-1273 -725 -600 -154 -1272 -87 -1833 184 -331 160 -562 327 -826 599 -401
411 -642 895 -731 1467 -29 183 -31 597 -5 768 120 777 540 1440 1192 1877
380 255 806 406 1270 449 146 14 410 12 555 -4z"/>
<path d="M3204 5517 c-12 -7 -280 -231 -595 -498 -316 -268 -727 -615 -914
-773 -256 -215 -346 -296 -362 -328 l-23 -42 0 -698 c0 -384 4 -698 8 -698 4
0 16 14 26 31 30 51 176 191 253 243 l73 50 1 475 0 476 527 442 c290 243 650
545 801 672 l274 230 61 -53 c75 -65 1020 -861 1318 -1110 l217 -181 0 -818 1
-817 -951 2 -950 3 -33 85 c-99 264 -327 456 -608 515 -102 22 -268 19 -364
-5 -518 -132 -781 -698 -544 -1170 109 -216 305 -370 556 -436 95 -24 293 -25
389 0 97 25 259 105 329 164 32 27 81 76 108 108 58 70 141 236 159 316 l12
58 513 0 514 0 2 -168 3 -167 165 0 165 0 3 167 2 168 100 0 100 0 0 -230 0
-230 168 2 167 3 3 228 2 227 128 0 c108 0 132 3 159 20 61 37 58 -27 58 1092
0 1023 0 1027 -21 1055 -11 15 -142 131 -290 256 -993 843 -1542 1305 -1573
1324 -40 25 -103 30 -137 10z m-919 -3152 c154 -41 289 -175 329 -330 43 -164
-1 -323 -123 -446 -149 -149 -352 -180 -543 -83 -63 32 -151 114 -185 172 -81
138 -84 321 -8 461 32 59 120 145 185 184 94 55 231 71 345 42z"/>
<path d="M2771 4034 c-43 -30 -51 -71 -51 -248 l0 -165 220 -3 220 -3 0 218 0
217 -183 0 c-153 0 -186 -3 -206 -16z"/>
<path d="M3370 3835 l0 -215 220 0 220 0 0 175 c0 192 -7 221 -55 243 -17 8
-88 12 -205 12 l-180 0 0 -215z"/>
<path d="M2722 3221 c3 -183 4 -190 26 -214 13 -14 36 -30 51 -36 30 -13 361
-11 361 2 0 4 0 104 0 222 l0 215 -221 0 -221 0 4 -189z"/>
<path d="M3370 3184 l0 -226 191 4 191 3 29 33 29 32 0 190 0 190 -220 0 -220
0 0 -226z"/>
</g>
</svg>