<?xml version="1.0" encoding="utf-8"?>
<!-- Generator: Adobe Illustrator 24.0.1, SVG Export Plug-In . SVG Version: 6.00 Build 0)  -->
<svg version="1.0" id="Layer_1" xmlns="http://www.w3.org/2000/svg" xmlns:xlink="http://www.w3.org/1999/xlink" x="0px" y="0px"
	 viewBox="0 0 512 512" style="enable-background:new 0 0 512 512;" xml:space="preserve">
<g>
	<rect x="43.1" y="417.4" style="fill:#FFFFFF;" width="414" height="29.7"/>
	<polyline style="fill:#FFE2BB;" points="261.9,416 261.9,346.5 347.9,276.9 434.5,347.2 434.5,414.4 	"/>
	<polygon style="fill:#D4F2FC;" points="287,292.4 287,168 415.2,168 415.2,295.5 354.2,254.5 348,249.1 	"/>
	<polyline style="fill:#FFE2BB;" points="64.5,416 64.5,234.5 175.7,234.5 175.7,415.2 	"/>
	<path style="fill:#CCF2FF;" d="M176.5,413.6V63h141.3v102h-30.1v124.4l-64.1,57.9c0,0,3.9,17.8,15.4,14.7l24.7-17.8v67.2"/>
	<g>
		<g>
			<path style="fill:#231F20;" d="M416,302.9c-4.1,0-7.5-3.4-7.5-7.5V172.9H293.2v117.9c0,4.1-3.4,7.5-7.5,7.5s-7.5-3.4-7.5-7.5
				V165.4c0-4.1,3.4-7.5,7.5-7.5H416c4.1,0,7.5,3.4,7.5,7.5v130C423.5,299.5,420.2,302.9,416,302.9z"/>
		</g>
		<g>
			<path style="fill:#231F20;" d="M177.4,423.1c-4.1,0-7.5-3.4-7.5-7.5V61.8c0-4.1,3.4-7.5,7.5-7.5h143c4.1,0,7.5,3.4,7.5,7.5V164
				c0,4.1-3.4,7.5-7.5,7.5s-7.5-3.4-7.5-7.5V69.3h-128v346.3C184.9,419.7,181.6,423.1,177.4,423.1z"/>
		</g>
		<g>
			<path style="fill:#231F20;" d="M66,422.7c-4.1,0-7.5-3.4-7.5-7.5V234.8c0-4.1,3.4-7.5,7.5-7.5h111.3c4.1,0,7.5,3.4,7.5,7.5
				s-3.4,7.5-7.5,7.5H73.5v172.9C73.5,419.3,70.1,422.7,66,422.7z"/>
		</g>
		<g>
			<path style="fill:#231F20;" d="M261.9,423.5c-4.1,0-7.5-3.4-7.5-7.5v-70.2c0-4.1,3.4-7.5,7.5-7.5s7.5,3.4,7.5,7.5V416
				C269.4,420.1,266.1,423.5,261.9,423.5z"/>
		</g>
		<g>
			<path style="fill:#231F20;" d="M433.9,423.5c-4.1,0-7.5-3.4-7.5-7.5v-71.5c0-4.1,3.4-7.5,7.5-7.5s7.5,3.4,7.5,7.5V416
				C441.4,420.1,438,423.5,433.9,423.5z"/>
		</g>
		<g>
			<g>
				<path style="fill:#FC8B6D;" d="M458.2,360.3c-2.7,0-5.4-0.9-7.7-2.7l-102.5-80.7l-102.5,80.7c-5.4,4.3-13.3,3.3-17.6-2.1
					c-4.3-5.4-3.3-13.3,2.1-17.6l110.3-86.8c4.5-3.6,10.9-3.6,15.5,0l110.3,86.8c5.4,4.3,6.4,12.1,2.1,17.6
					C465.6,358.6,461.9,360.3,458.2,360.3z"/>
				<path style="fill:#231F20;" d="M458.2,367.8c-4.5,0-8.9-1.5-12.4-4.3l-97.9-77.1L250,363.5c-8.7,6.8-21.3,5.3-28.1-3.4
					c-3.3-4.2-4.8-9.4-4.1-14.8c0.6-5.3,3.3-10.1,7.5-13.4l110.3-86.8c7.3-5.7,17.5-5.7,24.8,0L470.6,332c4.2,3.3,6.9,8.1,7.5,13.4
					c0.6,5.3-0.8,10.5-4.1,14.8C470.1,365,464.4,367.8,458.2,367.8z M347.9,269.4c1.6,0,3.3,0.5,4.6,1.6l102.5,80.7
					c1.1,0.9,2.3,1.1,3.1,1.1c1.6,0,3-0.7,4-1.9c0.8-1.1,1.2-2.4,1-3.7c-0.2-1.3-0.8-2.5-1.9-3.4L351,257c-1.8-1.4-4.4-1.4-6.2,0
					l-110.3,86.8c-1.1,0.8-1.7,2-1.9,3.4s0.2,2.6,1,3.7c1.7,2.2,4.9,2.6,7.1,0.8L343.3,271C344.6,269.9,346.3,269.4,347.9,269.4z"/>
			</g>
		</g>
	</g>
	<rect x="212.2" y="88.9" style="fill:#231F20;" width="14.6" height="32.8"/>
	<rect x="245.3" y="88.9" style="fill:#231F20;" width="14.6" height="32.8"/>
	<rect x="278.4" y="88.9" style="fill:#231F20;" width="14.6" height="32.8"/>
	<rect x="212.2" y="151.1" style="fill:#231F20;" width="14.6" height="32.8"/>
	<rect x="245.3" y="151.1" style="fill:#231F20;" width="14.6" height="32.8"/>
	<rect x="212.2" y="213.3" style="fill:#231F20;" width="14.6" height="32.8"/>
	<rect x="245.3" y="213.3" style="fill:#231F20;" width="14.6" height="32.8"/>
	<rect x="212.2" y="275.4" style="fill:#231F20;" width="14.6" height="32.8"/>
	<rect x="245.3" y="275.4" style="fill:#231F20;" width="14.6" height="32.8"/>
	<g>
		<path style="fill:#231F20;" d="M384.2,203.5h-63.8c-4.1,0-7.5-3.4-7.5-7.5s3.4-7.5,7.5-7.5h63.8c4.1,0,7.5,3.4,7.5,7.5
			S388.4,203.5,384.2,203.5z"/>
	</g>
	<g>
		<path style="fill:#231F20;" d="M384.2,237.4h-63.8c-4.1,0-7.5-3.4-7.5-7.5s3.4-7.5,7.5-7.5h63.8c4.1,0,7.5,3.4,7.5,7.5
			S388.4,237.4,384.2,237.4z"/>
	</g>
	<g>
		<path style="fill:#231F20;" d="M155.3,275.4H91.5c-4.1,0-7.5-3.4-7.5-7.5s3.4-7.5,7.5-7.5h63.8c4.1,0,7.5,3.4,7.5,7.5
			S159.4,275.4,155.3,275.4z"/>
	</g>
	<g>
		<path style="fill:#231F20;" d="M155.3,311.4H91.5c-4.1,0-7.5-3.4-7.5-7.5s3.4-7.5,7.5-7.5h63.8c4.1,0,7.5,3.4,7.5,7.5
			S159.4,311.4,155.3,311.4z"/>
	</g>
	<g>
		<path style="fill:#231F20;" d="M155.3,347.3H91.5c-4.1,0-7.5-3.4-7.5-7.5s3.4-7.5,7.5-7.5h63.8c4.1,0,7.5,3.4,7.5,7.5
			S159.4,347.3,155.3,347.3z"/>
	</g>
	<g>
		<path style="fill:#231F20;" d="M155.3,383.3H91.5c-4.1,0-7.5-3.4-7.5-7.5s3.4-7.5,7.5-7.5h63.8c4.1,0,7.5,3.4,7.5,7.5
			S159.4,383.3,155.3,383.3z"/>
	</g>
	<g>
		<polyline style="fill:#FC8B6D;" points="363.2,413.1 363.2,357.5 334.7,357.5 334.7,413.1 		"/>
		<path style="fill:#231F20;" d="M363.2,420.6c-4.1,0-7.5-3.4-7.5-7.5V365h-13.5v48.1c0,4.1-3.4,7.5-7.5,7.5s-7.5-3.4-7.5-7.5v-55.6
			c0-4.1,3.4-7.5,7.5-7.5h28.5c4.1,0,7.5,3.4,7.5,7.5v55.6C370.7,417.2,367.4,420.6,363.2,420.6z"/>
	</g>
	<g>
		<path style="fill:#231F20;" d="M460,457.8H40.6c-4.1,0-7.5-3.4-7.5-7.5v-33.6c0-4.1,3.4-7.5,7.5-7.5H460c4.1,0,7.5,3.4,7.5,7.5
			v33.6C467.5,454.4,464.2,457.8,460,457.8z M48.1,442.8h404.4v-18.6H48.1V442.8z"/>
	</g>
</g>
</svg>
